<svg id="visual" viewBox="0 0 1919 600" width="1919" height="600" xmlns="http://www.w3.org/2000/svg" xmlns:xlink="http://www.w3.org/1999/xlink" version="1.1"><rect x="0" y="0" width="1919" height="600" fill="#1E1E1E"></rect><defs><linearGradient id="grad1_0" x1="68.7%" y1="0%" x2="100%" y2="100%"><stop offset="-13.966666666666661%" stop-color="#3d5a80" stop-opacity="1"></stop><stop offset="113.96666666666667%" stop-color="#3d5a80" stop-opacity="1"></stop></linearGradient></defs><defs><linearGradient id="grad1_1" x1="68.7%" y1="0%" x2="100%" y2="100%"><stop offset="-13.966666666666661%" stop-color="#3d5a80" stop-opacity="1"></stop><stop offset="113.96666666666667%" stop-color="#395171" stop-opacity="1"></stop></linearGradient></defs><defs><linearGradient id="grad1_2" x1="68.7%" y1="0%" x2="100%" y2="100%"><stop offset="-13.966666666666661%" stop-color="#364862" stop-opacity="1"></stop><stop offset="113.96666666666667%" stop-color="#395171" stop-opacity="1"></stop></linearGradient></defs><defs><linearGradient id="grad1_3" x1="68.7%" y1="0%" x2="100%" y2="100%"><stop offset="-13.966666666666661%" stop-color="#364862" stop-opacity="1"></stop><stop offset="113.96666666666667%" stop-color="#323f53" stop-opacity="1"></stop></linearGradient></defs><defs><linearGradient id="grad1_4" x1="68.7%" y1="0%" x2="100%" y2="100%"><stop offset="-13.966666666666661%" stop-color="#2d3645" stop-opacity="1"></stop><stop offset="113.96666666666667%" stop-color="#323f53" stop-opacity="1"></stop></linearGradient></defs><defs><linearGradient id="grad1_5" x1="68.7%" y1="0%" x2="100%" y2="100%"><stop offset="-13.966666666666661%" stop-color="#2d3645" stop-opacity="1"></stop><stop offset="113.96666666666667%" stop-color="#282e38" stop-opacity="1"></stop></linearGradient></defs><defs><linearGradient id="grad1_6" x1="68.7%" y1="0%" x2="100%" y2="100%"><stop offset="-13.966666666666661%" stop-color="#23262b" stop-opacity="1"></stop><stop offset="113.96666666666667%" stop-color="#282e38" stop-opacity="1"></stop></linearGradient></defs><defs><linearGradient id="grad1_7" x1="68.7%" y1="0%" x2="100%" y2="100%"><stop offset="-13.966666666666661%" stop-color="#23262b" stop-opacity="1"></stop><stop offset="113.96666666666667%" stop-color="#1e1e1e" stop-opacity="1"></stop></linearGradient></defs><defs><linearGradient id="grad2_0" x1="0%" y1="0%" x2="31.3%" y2="100%"><stop offset="-13.966666666666661%" stop-color="#3d5a80" stop-opacity="1"></stop><stop offset="113.96666666666667%" stop-color="#3d5a80" stop-opacity="1"></stop></linearGradient></defs><defs><linearGradient id="grad2_1" x1="0%" y1="0%" x2="31.3%" y2="100%"><stop offset="-13.966666666666661%" stop-color="#395171" stop-opacity="1"></stop><stop offset="113.96666666666667%" stop-color="#3d5a80" stop-opacity="1"></stop></linearGradient></defs><defs><linearGradient id="grad2_2" x1="0%" y1="0%" x2="31.3%" y2="100%"><stop offset="-13.966666666666661%" stop-color="#395171" stop-opacity="1"></stop><stop offset="113.96666666666667%" stop-color="#364862" stop-opacity="1"></stop></linearGradient></defs><defs><linearGradient id="grad2_3" x1="0%" y1="0%" x2="31.3%" y2="100%"><stop offset="-13.966666666666661%" stop-color="#323f53" stop-opacity="1"></stop><stop offset="113.96666666666667%" stop-color="#364862" stop-opacity="1"></stop></linearGradient></defs><defs><linearGradient id="grad2_4" x1="0%" y1="0%" x2="31.3%" y2="100%"><stop offset="-13.966666666666661%" stop-color="#323f53" stop-opacity="1"></stop><stop offset="113.96666666666667%" stop-color="#2d3645" stop-opacity="1"></stop></linearGradient></defs><defs><linearGradient id="grad2_5" x1="0%" y1="0%" x2="31.3%" y2="100%"><stop offset="-13.966666666666661%" stop-color="#282e38" stop-opacity="1"></stop><stop offset="113.96666666666667%" stop-color="#2d3645" stop-opacity="1"></stop></linearGradient></defs><defs><linearGradient id="grad2_6" x1="0%" y1="0%" x2="31.3%" y2="100%"><stop offset="-13.966666666666661%" stop-color="#282e38" stop-opacity="1"></stop><stop offset="113.96666666666667%" stop-color="#23262b" stop-opacity="1"></stop></linearGradient></defs><defs><linearGradient id="grad2_7" x1="0%" y1="0%" x2="31.3%" y2="100%"><stop offset="-13.966666666666661%" stop-color="#1e1e1e" stop-opacity="1"></stop><stop offset="113.96666666666667%" stop-color="#23262b" stop-opacity="1"></stop></linearGradient></defs><g transform="translate(1919, 0)"><path d="M0 360C-17.9 353.2 -35.7 346.4 -54.4 343.7C-73.2 341.1 -92.7 342.6 -109.1 335.7C-125.4 328.8 -138.5 313.4 -155.7 305.6C-172.9 297.8 -194.2 297.5 -209.3 288C-224.3 278.5 -233.2 259.8 -245.4 245.4C-257.5 230.9 -273 220.8 -286.4 208.1C-299.8 195.4 -311.3 180 -320.8 163.4C-330.2 146.8 -337.8 128.9 -339.5 110.3C-341.3 91.7 -337.3 72.3 -339.8 53.8C-342.2 35.3 -351.1 17.7 -360 0L0 0Z" fill="#212224"></path><path d="M0 315C-15.6 309 -31.3 303.1 -47.6 300.8C-64 298.4 -81.1 299.8 -95.4 293.8C-109.7 287.7 -121.2 274.3 -136.3 267.4C-151.3 260.6 -169.9 260.3 -183.1 252C-196.3 243.7 -204.1 227.3 -214.7 214.7C-225.3 202.1 -238.8 193.2 -250.6 182.1C-262.4 170.9 -272.4 157.5 -280.7 143C-289 128.5 -295.5 112.8 -297.1 96.5C-298.6 80.2 -295.1 63.3 -297.3 47.1C-299.4 30.9 -307.2 15.4 -315 0L0 0Z" fill="#262a31"></path><path d="M0 270C-13.4 264.9 -26.8 259.8 -40.8 257.8C-54.9 255.8 -69.6 257 -81.8 251.8C-94.1 246.6 -103.9 235.1 -116.8 229.2C-129.7 223.3 -145.6 223.1 -156.9 216C-168.2 208.9 -174.9 194.8 -184 184C-193.1 173.2 -204.7 165.6 -214.8 156.1C-224.9 146.5 -233.5 135 -240.6 122.6C-247.7 110.1 -253.3 96.7 -254.6 82.7C-256 68.8 -253 54.2 -254.8 40.4C-256.7 26.5 -263.3 13.2 -270 0L0 0Z" fill="#2b323f"></path><path d="M0 225C-11.2 220.7 -22.3 216.5 -34 214.8C-45.7 213.2 -58 214.1 -68.2 209.8C-78.4 205.5 -86.6 195.9 -97.3 191C-108.1 186.1 -121.4 185.9 -130.8 180C-140.2 174.1 -145.8 162.4 -153.4 153.4C-161 144.3 -170.6 138 -179 130C-187.4 122.1 -194.6 112.5 -200.5 102.1C-206.4 91.8 -211.1 80.6 -212.2 68.9C-213.3 57.3 -210.8 45.2 -212.4 33.6C-213.9 22.1 -219.4 11 -225 0L0 0Z" fill="#2f3b4c"></path><path d="M0 180C-8.9 176.6 -17.9 173.2 -27.2 171.9C-36.6 170.5 -46.4 171.3 -54.5 167.9C-62.7 164.4 -69.3 156.7 -77.9 152.8C-86.5 148.9 -97.1 148.8 -104.6 144C-112.2 139.3 -116.6 129.9 -122.7 122.7C-128.8 115.5 -136.5 110.4 -143.2 104C-149.9 97.7 -155.6 90 -160.4 81.7C-165.1 73.4 -168.9 64.5 -169.8 55.2C-170.6 45.8 -168.7 36.2 -169.9 26.9C-171.1 17.7 -175.6 8.8 -180 0L0 0Z" fill="#34435b"></path><path d="M0 135C-6.7 132.4 -13.4 129.9 -20.4 128.9C-27.4 127.9 -34.8 128.5 -40.9 125.9C-47 123.3 -51.9 117.5 -58.4 114.6C-64.8 111.7 -72.8 111.6 -78.5 108C-84.1 104.4 -87.5 97.4 -92 92C-96.6 86.6 -102.4 82.8 -107.4 78C-112.4 73.3 -116.7 67.5 -120.3 61.3C-123.8 55.1 -126.7 48.4 -127.3 41.4C-128 34.4 -126.5 27.1 -127.4 20.2C-128.3 13.2 -131.7 6.6 -135 0L0 0Z" fill="#384c69"></path><path d="M0 90C-4.5 88.3 -8.9 86.6 -13.6 85.9C-18.3 85.3 -23.2 85.7 -27.3 83.9C-31.4 82.2 -34.6 78.4 -38.9 76.4C-43.2 74.4 -48.5 74.4 -52.3 72C-56.1 69.6 -58.3 64.9 -61.3 61.3C-64.4 57.7 -68.2 55.2 -71.6 52C-75 48.8 -77.8 45 -80.2 40.9C-82.6 36.7 -84.4 32.2 -84.9 27.6C-85.3 22.9 -84.3 18.1 -84.9 13.5C-85.6 8.8 -87.8 4.4 -90 0L0 0Z" fill="#3b5578"></path><path d="M0 45C-2.2 44.1 -4.5 43.3 -6.8 43C-9.1 42.6 -11.6 42.8 -13.6 42C-15.7 41.1 -17.3 39.2 -19.5 38.2C-21.6 37.2 -24.3 37.2 -26.2 36C-28 34.8 -29.2 32.5 -30.7 30.7C-32.2 28.9 -34.1 27.6 -35.8 26C-37.5 24.4 -38.9 22.5 -40.1 20.4C-41.3 18.4 -42.2 16.1 -42.4 13.8C-42.7 11.5 -42.2 9 -42.5 6.7C-42.8 4.4 -43.9 2.2 -45 0L0 0Z" fill="#3d5a80"></path></g><g transform="translate(0, 600)"><path d="M0 -360C18.9 -357.9 37.8 -355.9 55.4 -349.6C72.9 -343.4 89.1 -333.1 105.7 -325.3C122.2 -317.5 139.1 -312.2 155.7 -305.6C172.3 -299 188.7 -291.1 205.1 -282.3C221.5 -273.6 237.9 -264.2 252.4 -252.4C266.9 -240.7 279.6 -226.7 291.2 -211.6C302.9 -196.5 313.6 -180.3 318.1 -162.1C322.5 -143.8 320.7 -123.6 325.3 -105.7C329.8 -87.8 340.8 -72.3 347.7 -55.1C354.5 -37.8 357.3 -18.9 360 0L0 0Z" fill="#212224"></path><path d="M0 -315C16.5 -313.2 33.1 -311.4 48.5 -305.9C63.8 -300.5 78 -291.4 92.5 -284.6C106.9 -277.8 121.7 -273.2 136.3 -267.4C150.8 -261.6 165.1 -254.7 179.5 -247.1C193.8 -239.4 208.2 -231.1 220.9 -220.9C233.6 -210.6 244.6 -198.4 254.8 -185.2C265.1 -171.9 274.4 -157.8 278.3 -141.8C282.2 -125.9 280.6 -108.1 284.6 -92.5C288.6 -76.8 298.2 -63.2 304.2 -48.2C310.2 -33.1 312.6 -16.6 315 0L0 0Z" fill="#262a31"></path><path d="M0 -270C14.2 -268.4 28.4 -266.9 41.5 -262.2C54.7 -257.6 66.9 -249.8 79.3 -243.9C91.7 -238.1 104.3 -234.2 116.8 -229.2C129.3 -224.3 141.6 -218.3 153.9 -211.8C166.1 -205.2 178.4 -198.1 189.3 -189.3C200.2 -180.5 209.7 -170 218.4 -158.7C227.2 -147.4 235.2 -135.2 238.6 -121.6C241.9 -107.9 240.5 -92.7 243.9 -79.3C247.4 -65.8 255.6 -54.2 260.7 -41.3C265.9 -28.4 267.9 -14.2 270 0L0 0Z" fill="#2b323f"></path><path d="M0 -225C11.8 -223.7 23.6 -222.4 34.6 -218.5C45.6 -214.6 55.7 -208.2 66.1 -203.3C76.4 -198.4 86.9 -195.1 97.3 -191C107.7 -186.9 118 -181.9 128.2 -176.5C138.5 -171 148.7 -165.1 157.8 -157.8C166.8 -150.4 174.7 -141.7 182 -132.3C189.3 -122.8 196 -112.7 198.8 -101.3C201.6 -89.9 200.4 -77.2 203.3 -66.1C206.1 -54.9 213 -45.2 217.3 -34.4C221.6 -23.7 223.3 -11.8 225 0L0 0Z" fill="#2f3b4c"></path><path d="M0 -180C9.5 -179 18.9 -177.9 27.7 -174.8C36.5 -171.7 44.6 -166.5 52.8 -162.6C61.1 -158.7 69.5 -156.1 77.9 -152.8C86.2 -149.5 94.4 -145.5 102.6 -141.2C110.8 -136.8 119 -132.1 126.2 -126.2C133.5 -120.4 139.8 -113.4 145.6 -105.8C151.5 -98.3 156.8 -90.2 159 -81C161.3 -71.9 160.3 -61.8 162.6 -52.8C164.9 -43.9 170.4 -36.1 173.8 -27.5C177.3 -18.9 178.6 -9.5 180 0L0 0Z" fill="#34435b"></path><path d="M0 -135C7.1 -134.2 14.2 -133.4 20.8 -131.1C27.4 -128.8 33.4 -124.9 39.6 -122C45.8 -119 52.2 -117.1 58.4 -114.6C64.6 -112.1 70.8 -109.1 76.9 -105.9C83.1 -102.6 89.2 -99.1 94.7 -94.7C100.1 -90.3 104.8 -85 109.2 -79.4C113.6 -73.7 117.6 -67.6 119.3 -60.8C120.9 -53.9 120.3 -46.3 122 -39.6C123.7 -32.9 127.8 -27.1 130.4 -20.6C132.9 -14.2 134 -7.1 135 0L0 0Z" fill="#384c69"></path><path d="M0 -90C4.7 -89.5 9.5 -89 13.8 -87.4C18.2 -85.9 22.3 -83.3 26.4 -81.3C30.6 -79.4 34.8 -78.1 38.9 -76.4C43.1 -74.8 47.2 -72.8 51.3 -70.6C55.4 -68.4 59.5 -66 63.1 -63.1C66.7 -60.2 69.9 -56.7 72.8 -52.9C75.7 -49.1 78.4 -45.1 79.5 -40.5C80.6 -36 80.2 -30.9 81.3 -26.4C82.5 -21.9 85.2 -18.1 86.9 -13.8C88.6 -9.5 89.3 -4.7 90 0L0 0Z" fill="#3b5578"></path><path d="M0 -45C2.4 -44.7 4.7 -44.5 6.9 -43.7C9.1 -42.9 11.1 -41.6 13.2 -40.7C15.3 -39.7 17.4 -39 19.5 -38.2C21.5 -37.4 23.6 -36.4 25.6 -35.3C27.7 -34.2 29.7 -33 31.6 -31.6C33.4 -30.1 34.9 -28.3 36.4 -26.5C37.9 -24.6 39.2 -22.5 39.8 -20.3C40.3 -18 40.1 -15.4 40.7 -13.2C41.2 -11 42.6 -9 43.5 -6.9C44.3 -4.7 44.7 -2.4 45 0L0 0Z" fill="#3d5a80"></path></g></svg>