<svg id="visual" viewBox="0 0 1920 600" width="1920" height="600" xmlns="http://www.w3.org/2000/svg" xmlns:xlink="http://www.w3.org/1999/xlink" version="1.1"><rect x="0" y="0" width="1920" height="600" fill="#1E1E1E"></rect><defs><linearGradient id="grad1_0" x1="68.8%" y1="100%" x2="100%" y2="0%"><stop offset="-14.000000000000007%" stop-color="#3d5a80" stop-opacity="1"></stop><stop offset="114.00000000000001%" stop-color="#3d5a80" stop-opacity="1"></stop></linearGradient></defs><defs><linearGradient id="grad1_1" x1="68.8%" y1="100%" x2="100%" y2="0%"><stop offset="-14.000000000000007%" stop-color="#3d5a80" stop-opacity="1"></stop><stop offset="114.00000000000001%" stop-color="#395171" stop-opacity="1"></stop></linearGradient></defs><defs><linearGradient id="grad1_2" x1="68.8%" y1="100%" x2="100%" y2="0%"><stop offset="-14.000000000000007%" stop-color="#364862" stop-opacity="1"></stop><stop offset="114.00000000000001%" stop-color="#395171" stop-opacity="1"></stop></linearGradient></defs><defs><linearGradient id="grad1_3" x1="68.8%" y1="100%" x2="100%" y2="0%"><stop offset="-14.000000000000007%" stop-color="#364862" stop-opacity="1"></stop><stop offset="114.00000000000001%" stop-color="#323f53" stop-opacity="1"></stop></linearGradient></defs><defs><linearGradient id="grad1_4" x1="68.8%" y1="100%" x2="100%" y2="0%"><stop offset="-14.000000000000007%" stop-color="#2d3645" stop-opacity="1"></stop><stop offset="114.00000000000001%" stop-color="#323f53" stop-opacity="1"></stop></linearGradient></defs><defs><linearGradient id="grad1_5" x1="68.8%" y1="100%" x2="100%" y2="0%"><stop offset="-14.000000000000007%" stop-color="#2d3645" stop-opacity="1"></stop><stop offset="114.00000000000001%" stop-color="#282e38" stop-opacity="1"></stop></linearGradient></defs><defs><linearGradient id="grad1_6" x1="68.8%" y1="100%" x2="100%" y2="0%"><stop offset="-14.000000000000007%" stop-color="#23262b" stop-opacity="1"></stop><stop offset="114.00000000000001%" stop-color="#282e38" stop-opacity="1"></stop></linearGradient></defs><defs><linearGradient id="grad1_7" x1="68.8%" y1="100%" x2="100%" y2="0%"><stop offset="-14.000000000000007%" stop-color="#23262b" stop-opacity="1"></stop><stop offset="114.00000000000001%" stop-color="#1e1e1e" stop-opacity="1"></stop></linearGradient></defs><defs><linearGradient id="grad2_0" x1="0%" y1="100%" x2="31.3%" y2="0%"><stop offset="-14.000000000000007%" stop-color="#3d5a80" stop-opacity="1"></stop><stop offset="114.00000000000001%" stop-color="#3d5a80" stop-opacity="1"></stop></linearGradient></defs><defs><linearGradient id="grad2_1" x1="0%" y1="100%" x2="31.3%" y2="0%"><stop offset="-14.000000000000007%" stop-color="#395171" stop-opacity="1"></stop><stop offset="114.00000000000001%" stop-color="#3d5a80" stop-opacity="1"></stop></linearGradient></defs><defs><linearGradient id="grad2_2" x1="0%" y1="100%" x2="31.3%" y2="0%"><stop offset="-14.000000000000007%" stop-color="#395171" stop-opacity="1"></stop><stop offset="114.00000000000001%" stop-color="#364862" stop-opacity="1"></stop></linearGradient></defs><defs><linearGradient id="grad2_3" x1="0%" y1="100%" x2="31.3%" y2="0%"><stop offset="-14.000000000000007%" stop-color="#323f53" stop-opacity="1"></stop><stop offset="114.00000000000001%" stop-color="#364862" stop-opacity="1"></stop></linearGradient></defs><defs><linearGradient id="grad2_4" x1="0%" y1="100%" x2="31.3%" y2="0%"><stop offset="-14.000000000000007%" stop-color="#323f53" stop-opacity="1"></stop><stop offset="114.00000000000001%" stop-color="#2d3645" stop-opacity="1"></stop></linearGradient></defs><defs><linearGradient id="grad2_5" x1="0%" y1="100%" x2="31.3%" y2="0%"><stop offset="-14.000000000000007%" stop-color="#282e38" stop-opacity="1"></stop><stop offset="114.00000000000001%" stop-color="#2d3645" stop-opacity="1"></stop></linearGradient></defs><defs><linearGradient id="grad2_6" x1="0%" y1="100%" x2="31.3%" y2="0%"><stop offset="-14.000000000000007%" stop-color="#282e38" stop-opacity="1"></stop><stop offset="114.00000000000001%" stop-color="#23262b" stop-opacity="1"></stop></linearGradient></defs><defs><linearGradient id="grad2_7" x1="0%" y1="100%" x2="31.3%" y2="0%"><stop offset="-14.000000000000007%" stop-color="#1e1e1e" stop-opacity="1"></stop><stop offset="114.00000000000001%" stop-color="#23262b" stop-opacity="1"></stop></linearGradient></defs><g transform="translate(1920, 600)"><path d="M-360 0C-359.1 -18.9 -358.1 -37.9 -354.6 -56.2C-351.1 -74.5 -345 -92.1 -339.5 -110.3C-334.1 -128.5 -329.3 -147.2 -319.9 -163C-310.4 -178.8 -296.2 -191.6 -285.6 -207.5C-275 -223.4 -268 -242.2 -254.6 -254.6C-241.1 -266.9 -221.3 -272.6 -205.1 -282.3C-188.9 -292.1 -176.4 -305.8 -161.2 -316.3C-146 -326.8 -128.1 -334.1 -110 -338.6C-91.9 -343 -73.5 -344.6 -55.1 -347.7C-36.7 -350.8 -18.3 -355.4 0 -360L0 0Z" fill="#212224"></path><path d="M-315 0C-314.2 -16.6 -313.3 -33.1 -310.3 -49.1C-307.2 -65.2 -301.8 -80.6 -297.1 -96.5C-292.3 -112.4 -288.2 -128.8 -279.9 -142.6C-271.6 -156.4 -259.2 -167.7 -249.9 -181.6C-240.6 -195.4 -234.5 -212 -222.7 -222.7C-211 -233.5 -193.7 -238.5 -179.5 -247.1C-165.3 -255.6 -154.3 -267.6 -141 -276.8C-127.7 -286 -112.1 -292.4 -96.3 -296.3C-80.4 -300.1 -64.3 -301.5 -48.2 -304.2C-32.1 -306.9 -16 -311 0 -315L0 0Z" fill="#262a31"></path><path d="M-270 0C-269.3 -14.2 -268.6 -28.4 -265.9 -42.1C-263.3 -55.8 -258.7 -69.1 -254.6 -82.7C-250.6 -96.4 -247 -110.4 -239.9 -122.2C-232.8 -134.1 -222.1 -143.7 -214.2 -155.6C-206.2 -167.5 -201 -181.7 -190.9 -190.9C-180.9 -200.2 -166 -204.5 -153.9 -211.8C-141.7 -219.1 -132.3 -229.3 -120.9 -237.2C-109.5 -245.1 -96.1 -250.6 -82.5 -253.9C-68.9 -257.3 -55.1 -258.4 -41.3 -260.7C-27.5 -263.1 -13.8 -266.5 0 -270L0 0Z" fill="#2b323f"></path><path d="M-225 0C-224.4 -11.8 -223.8 -23.7 -221.6 -35.1C-219.4 -46.5 -215.6 -57.6 -212.2 -68.9C-208.8 -80.3 -205.8 -92 -199.9 -101.9C-194 -111.7 -185.1 -119.8 -178.5 -129.7C-171.9 -139.6 -167.5 -151.4 -159.1 -159.1C-150.7 -166.8 -138.3 -170.4 -128.2 -176.5C-118.1 -182.5 -110.2 -191.1 -100.7 -197.7C-91.2 -204.3 -80.1 -208.8 -68.8 -211.6C-57.4 -214.4 -45.9 -215.4 -34.4 -217.3C-22.9 -219.2 -11.5 -222.1 0 -225L0 0Z" fill="#2f3b4c"></path><path d="M-180 0C-179.5 -9.5 -179.1 -18.9 -177.3 -28.1C-175.5 -37.2 -172.5 -46.1 -169.8 -55.2C-167.1 -64.3 -164.7 -73.6 -159.9 -81.5C-155.2 -89.4 -148.1 -95.8 -142.8 -103.7C-137.5 -111.7 -134 -121.1 -127.3 -127.3C-120.6 -133.4 -110.7 -136.3 -102.6 -141.2C-94.5 -146 -88.2 -152.9 -80.6 -158.2C-73 -163.4 -64.1 -167.1 -55 -169.3C-45.9 -171.5 -36.7 -172.3 -27.5 -173.8C-18.3 -175.4 -9.2 -177.7 0 -180L0 0Z" fill="#34435b"></path><path d="M-135 0C-134.6 -7.1 -134.3 -14.2 -133 -21.1C-131.6 -27.9 -129.4 -34.5 -127.3 -41.4C-125.3 -48.2 -123.5 -55.2 -120 -61.1C-116.4 -67 -111.1 -71.9 -107.1 -77.8C-103.1 -83.8 -100.5 -90.8 -95.5 -95.5C-90.4 -100.1 -83 -102.2 -76.9 -105.9C-70.9 -109.5 -66.1 -114.7 -60.4 -118.6C-54.7 -122.6 -48.1 -125.3 -41.3 -127C-34.5 -128.6 -27.5 -129.2 -20.6 -130.4C-13.8 -131.5 -6.9 -133.3 0 -135L0 0Z" fill="#384c69"></path><path d="M-90 0C-89.8 -4.7 -89.5 -9.5 -88.6 -14C-87.8 -18.6 -86.2 -23 -84.9 -27.6C-83.5 -32.1 -82.3 -36.8 -80 -40.7C-77.6 -44.7 -74 -47.9 -71.4 -51.9C-68.7 -55.8 -67 -60.6 -63.6 -63.6C-60.3 -66.7 -55.3 -68.2 -51.3 -70.6C-47.2 -73 -44.1 -76.4 -40.3 -79.1C-36.5 -81.7 -32 -83.5 -27.5 -84.6C-23 -85.8 -18.4 -86.1 -13.8 -86.9C-9.2 -87.7 -4.6 -88.8 0 -90L0 0Z" fill="#3b5578"></path><path d="M-45 0C-44.9 -2.4 -44.8 -4.7 -44.3 -7C-43.9 -9.3 -43.1 -11.5 -42.4 -13.8C-41.8 -16.1 -41.2 -18.4 -40 -20.4C-38.8 -22.3 -37 -24 -35.7 -25.9C-34.4 -27.9 -33.5 -30.3 -31.8 -31.8C-30.1 -33.4 -27.7 -34.1 -25.6 -35.3C-23.6 -36.5 -22 -38.2 -20.1 -39.5C-18.2 -40.9 -16 -41.8 -13.8 -42.3C-11.5 -42.9 -9.2 -43.1 -6.9 -43.5C-4.6 -43.8 -2.3 -44.4 0 -45L0 0Z" fill="#3d5a80"></path></g><g transform="translate(0, 0)"><path d="M360 0C356.2 18.4 352.5 36.8 349.6 55.4C346.8 74 344.9 92.7 338.6 110C332.3 127.3 321.7 143 312.7 159.4C303.8 175.7 296.6 192.5 287.2 208.7C277.8 224.8 266.4 240.2 251.7 251.7C237.1 263.2 219.3 270.7 203.4 279.9C187.5 289.1 173.6 299.9 158.9 311.9C144.2 323.8 128.8 336.8 111.2 342.4C93.7 347.9 74 346 55.1 347.7C36.2 349.4 18.1 354.7 0 360L0 0Z" fill="#212224"></path><path d="M315 0C311.7 16.1 308.4 32.2 305.9 48.5C303.4 64.7 301.7 81.1 296.3 96.3C290.8 111.4 281.5 125.2 273.7 139.4C265.8 153.7 259.5 168.5 251.3 182.6C243.1 196.7 233.1 210.2 220.3 220.3C207.4 230.3 191.8 236.9 178 244.9C164.1 253 151.9 262.4 139 272.9C126.2 283.3 112.7 294.7 97.3 299.6C82 304.4 64.7 302.7 48.2 304.2C31.6 305.7 15.8 310.3 0 315L0 0Z" fill="#262a31"></path><path d="M270 0C267.2 13.8 264.4 27.6 262.2 41.5C260.1 55.5 258.6 69.6 253.9 82.5C249.2 95.5 241.3 107.3 234.6 119.5C227.9 131.7 222.4 144.4 215.4 156.5C208.4 168.6 199.8 180.2 188.8 188.8C177.8 197.4 164.4 203.1 152.5 209.9C140.6 216.8 130.2 224.9 119.2 233.9C108.2 242.8 96.6 252.6 83.4 256.8C70.3 260.9 55.5 259.5 41.3 260.7C27.1 262 13.6 266 0 270L0 0Z" fill="#2b323f"></path><path d="M225 0C222.7 11.5 220.3 23 218.5 34.6C216.7 46.2 215.5 58 211.6 68.8C207.7 79.5 201 89.4 195.5 99.6C189.9 109.8 185.3 120.3 179.5 130.4C173.7 140.5 166.5 150.2 157.3 157.3C148.2 164.5 137 169.2 127.1 174.9C117.2 180.7 108.5 187.4 99.3 194.9C90.1 202.4 80.5 210.5 69.5 214C58.6 217.5 46.2 216.2 34.4 217.3C22.6 218.3 11.3 221.7 0 225L0 0Z" fill="#2f3b4c"></path><path d="M180 0C178.1 9.2 176.2 18.4 174.8 27.7C173.4 37 172.4 46.4 169.3 55C166.1 63.6 160.8 71.5 156.4 79.7C151.9 87.8 148.3 96.3 143.6 104.3C138.9 112.4 133.2 120.1 125.9 125.9C118.5 131.6 109.6 135.4 101.7 140C93.7 144.5 86.8 150 79.4 155.9C72.1 161.9 64.4 168.4 55.6 171.2C46.8 174 37 173 27.5 173.8C18.1 174.7 9 177.3 0 180L0 0Z" fill="#34435b"></path><path d="M135 0C133.6 6.9 132.2 13.8 131.1 20.8C130 27.7 129.3 34.8 127 41.3C124.6 47.7 120.6 53.6 117.3 59.8C113.9 65.9 111.2 72.2 107.7 78.2C104.2 84.3 99.9 90.1 94.4 94.4C88.9 98.7 82.2 101.5 76.3 105C70.3 108.4 65.1 112.5 59.6 116.9C54.1 121.4 48.3 126.3 41.7 128.4C35.1 130.5 27.7 129.7 20.6 130.4C13.6 131 6.8 133 0 135L0 0Z" fill="#384c69"></path><path d="M90 0C89.1 4.6 88.1 9.2 87.4 13.8C86.7 18.5 86.2 23.2 84.6 27.5C83.1 31.8 80.4 35.8 78.2 39.8C76 43.9 74.1 48.1 71.8 52.2C69.5 56.2 66.6 60.1 62.9 62.9C59.3 65.8 54.8 67.7 50.8 70C46.9 72.3 43.4 75 39.7 78C36.1 80.9 32.2 84.2 27.8 85.6C23.4 87 18.5 86.5 13.8 86.9C9 87.3 4.5 88.7 0 90L0 0Z" fill="#3b5578"></path><path d="M45 0C44.5 2.3 44.1 4.6 43.7 6.9C43.3 9.2 43.1 11.6 42.3 13.8C41.5 15.9 40.2 17.9 39.1 19.9C38 22 37.1 24.1 35.9 26.1C34.7 28.1 33.3 30 31.5 31.5C29.6 32.9 27.4 33.8 25.4 35C23.4 36.1 21.7 37.5 19.9 39C18 40.5 16.1 42.1 13.9 42.8C11.7 43.5 9.2 43.2 6.9 43.5C4.5 43.7 2.3 44.3 0 45L0 0Z" fill="#3d5a80"></path></g></svg>