<svg id="visual" viewBox="0 0 1920 600" width="1920" height="600" xmlns="http://www.w3.org/2000/svg" xmlns:xlink="http://www.w3.org/1999/xlink" version="1.1"><path d="M0 187L29.2 197C58.3 207 116.7 227 174.8 231C233 235 291 223 349.2 219C407.3 215 465.7 219 523.8 210C582 201 640 179 698.2 177C756.3 175 814.7 193 872.8 189C931 185 989 159 1047.2 179C1105.3 199 1163.7 265 1221.8 266C1280 267 1338 203 1396.2 193C1454.3 183 1512.7 227 1570.8 225C1629 223 1687 175 1745.2 153C1803.3 131 1861.7 135 1890.8 137L1920 139L1920 0L1890.8 0C1861.7 0 1803.3 0 1745.2 0C1687 0 1629 0 1570.8 0C1512.7 0 1454.3 0 1396.2 0C1338 0 1280 0 1221.8 0C1163.7 0 1105.3 0 1047.2 0C989 0 931 0 872.8 0C814.7 0 756.3 0 698.2 0C640 0 582 0 523.8 0C465.7 0 407.3 0 349.2 0C291 0 233 0 174.8 0C116.7 0 58.3 0 29.2 0L0 0Z" fill="#6198ff"></path><path d="M0 331L29.2 337C58.3 343 116.7 355 174.8 344C233 333 291 299 349.2 298C407.3 297 465.7 329 523.8 330C582 331 640 301 698.2 286C756.3 271 814.7 271 872.8 274C931 277 989 283 1047.2 303C1105.3 323 1163.7 357 1221.8 356C1280 355 1338 319 1396.2 324C1454.3 329 1512.7 375 1570.8 366C1629 357 1687 293 1745.2 261C1803.3 229 1861.7 229 1890.8 229L1920 229L1920 137L1890.8 135C1861.7 133 1803.3 129 1745.2 151C1687 173 1629 221 1570.8 223C1512.7 225 1454.3 181 1396.2 191C1338 201 1280 265 1221.8 264C1163.7 263 1105.3 197 1047.2 177C989 157 931 183 872.8 187C814.7 191 756.3 173 698.2 175C640 177 582 199 523.8 208C465.7 217 407.3 213 349.2 217C291 221 233 233 174.8 229C116.7 225 58.3 205 29.2 195L0 185Z" fill="#3c80ff"></path><path d="M0 457L29.2 456C58.3 455 116.7 453 174.8 433C233 413 291 375 349.2 373C407.3 371 465.7 405 523.8 409C582 413 640 387 698.2 371C756.3 355 814.7 349 872.8 348C931 347 989 351 1047.2 368C1105.3 385 1163.7 415 1221.8 410C1280 405 1338 365 1396.2 371C1454.3 377 1512.7 429 1570.8 429C1629 429 1687 377 1745.2 355C1803.3 333 1861.7 341 1890.8 345L1920 349L1920 227L1890.8 227C1861.7 227 1803.3 227 1745.2 259C1687 291 1629 355 1570.8 364C1512.7 373 1454.3 327 1396.2 322C1338 317 1280 353 1221.8 354C1163.7 355 1105.3 321 1047.2 301C989 281 931 275 872.8 272C814.7 269 756.3 269 698.2 284C640 299 582 329 523.8 328C465.7 327 407.3 295 349.2 296C291 297 233 331 174.8 342C116.7 353 58.3 341 29.2 335L0 329Z" fill="#0066ff"></path><path d="M0 547L29.2 547C58.3 547 116.7 547 174.8 542C233 537 291 527 349.2 521C407.3 515 465.7 513 523.8 510C582 507 640 503 698.2 502C756.3 501 814.7 503 872.8 505C931 507 989 509 1047.2 517C1105.3 525 1163.7 539 1221.8 537C1280 535 1338 517 1396.2 519C1454.3 521 1512.7 543 1570.8 546C1629 549 1687 533 1745.2 527C1803.3 521 1861.7 525 1890.8 527L1920 529L1920 347L1890.8 343C1861.7 339 1803.3 331 1745.2 353C1687 375 1629 427 1570.8 427C1512.7 427 1454.3 375 1396.2 369C1338 363 1280 403 1221.8 408C1163.7 413 1105.3 383 1047.2 366C989 349 931 345 872.8 346C814.7 347 756.3 353 698.2 369C640 385 582 411 523.8 407C465.7 403 407.3 369 349.2 371C291 373 233 411 174.8 431C116.7 451 58.3 453 29.2 454L0 455Z" fill="#0059dd"></path><path d="M0 601L29.2 601C58.3 601 116.7 601 174.8 601C233 601 291 601 349.2 601C407.3 601 465.7 601 523.8 601C582 601 640 601 698.2 601C756.3 601 814.7 601 872.8 601C931 601 989 601 1047.2 601C1105.3 601 1163.7 601 1221.8 601C1280 601 1338 601 1396.2 601C1454.3 601 1512.7 601 1570.8 601C1629 601 1687 601 1745.2 601C1803.3 601 1861.7 601 1890.8 601L1920 601L1920 527L1890.8 525C1861.7 523 1803.3 519 1745.2 525C1687 531 1629 547 1570.8 544C1512.7 541 1454.3 519 1396.2 517C1338 515 1280 533 1221.8 535C1163.7 537 1105.3 523 1047.2 515C989 507 931 505 872.8 503C814.7 501 756.3 499 698.2 500C640 501 582 505 523.8 508C465.7 511 407.3 513 349.2 519C291 525 233 535 174.8 540C116.7 545 58.3 545 29.2 545L0 545Z" fill="#004cbb"></path></svg>