<svg id="visual" viewBox="0 0 1920 600" width="1920" height="600" xmlns="http://www.w3.org/2000/svg" xmlns:xlink="http://www.w3.org/1999/xlink" version="1.1"><path d="M0 450L29.2 441.7C58.3 433.3 116.7 416.7 174.8 406.7C233 396.7 291 393.3 349.2 397.8C407.3 402.3 465.7 414.7 523.8 427.3C582 440 640 453 698.2 465.7C756.3 478.3 814.7 490.7 872.8 496C931 501.3 989 499.7 1047.2 490.7C1105.3 481.7 1163.7 465.3 1221.8 454.5C1280 443.7 1338 438.3 1396.2 432C1454.3 425.7 1512.7 418.3 1570.8 424.7C1629 431 1687 451 1745.2 448.2C1803.3 445.3 1861.7 419.7 1890.8 406.8L1920 394L1920 601L1890.8 601C1861.7 601 1803.3 601 1745.2 601C1687 601 1629 601 1570.8 601C1512.7 601 1454.3 601 1396.2 601C1338 601 1280 601 1221.8 601C1163.7 601 1105.3 601 1047.2 601C989 601 931 601 872.8 601C814.7 601 756.3 601 698.2 601C640 601 582 601 523.8 601C465.7 601 407.3 601 349.2 601C291 601 233 601 174.8 601C116.7 601 58.3 601 29.2 601L0 601Z" fill="#3D5A80" stroke-linecap="round" stroke-linejoin="miter"></path></svg>